<svg width="21" height="20" viewBox="0 0 21 20" xmlns="http://www.w3.org/2000/svg"><title>facebook</title><desc>Created with Sketch.</desc><g fill="none" fill-rule="evenodd"><g fill="#fff"><g><path d="M1.17 0h18.69c.32 0 .594.107.817.32.225.215.33.47.322.768v17.824c0 .316-.108.577-.323.78-.214.206-.487.308-.818.308h-5.354v-7.74h2.72l.425-3.027h-3.144v-1.91c0-.493.108-.865.322-1.117.224-.25.634-.377 1.23-.377h1.68V3.15c-.458-.093-1.286-.14-2.486-.14-1.2 0-2.17.35-2.91 1.047-.74.705-1.11 1.686-1.11 2.94v2.233H8.48v3.026h2.75V20H1.168c-.312 0-.585-.107-.82-.32-.233-.215-.35-.47-.35-.768V1.088C0 .772.117.51.35.308.586.1.86 0 1.17 0"/></g></g></g></svg>