<svg width="21" height="20" viewBox="0 0 21 20" xmlns="http://www.w3.org/2000/svg"><title>github</title><desc>Created with Sketch.</desc><g fill="none" fill-rule="evenodd"><g fill="#fff"><g><path d="M13.083 19.357c0-1.118.005-2.037.014-2.758.01-.72-.217-1.328-.682-1.825.238 0 .673-.077 1.306-.233 1.395-.34 2.36-1.036 2.893-2.086.584-1.236.722-2.5.415-3.794-.108-.496-.29-.9-.548-1.21-.258-.312-.366-.527-.326-.643.227-.74.197-1.528-.09-2.365-.06-.156-.153-.214-.28-.175-.615 0-1.455.316-2.523.948-.177.06-.286.08-.326.06-1.64-.4-3.273-.4-4.895 0-.12.02-.23 0-.327-.06-.89-.535-1.632-.85-2.226-.948-.267-.078-.43-.068-.49.03-.058.097-.117.223-.177.38-.227.758-.227 1.477 0 2.158.04.117.02.195-.06.234-.81.953-1.117 2.178-.92 3.676.298 2.024 1.425 3.288 3.383 3.794.1.02.534.112 1.306.278-.308.32-.51.724-.61 1.21-.04.098-.088.15-.148.16-1.275.497-2.24.215-2.892-.845-.386-.613-.86-.968-1.425-1.065-.197-.04-.37-.03-.52.03-.197.037-.227.135-.088.29.1.098.188.17.267.22.504.3.89.768 1.157 1.4.387.914 1.11 1.4 2.167 1.46.138 0 .613-.02 1.424-.06v1.94c.01.167-.063.29-.22.366-.16.078-.337.088-.536.03-.97-.34-1.8-.75-2.49-1.226-3.245-2.227-4.778-5.23-4.6-9.003.098-2.373.94-4.436 2.52-6.187C4.12 1.79 6.185.67 8.737.184c2.552-.486 5-.01 7.343 1.43 2.334 1.45 3.85 3.468 4.553 6.056.703 2.587.396 5.072-.92 7.456-1.314 2.384-3.253 3.983-5.815 4.8-.543.194-.815.005-.815-.57zm-8.782-4.1c-.04-.077-.1-.155-.177-.234 0-.018.03-.058.09-.116l.207.175-.12.175zm.46.51c-.167-.126-.237-.203-.207-.233l.09-.087.266.175-.15.146zm.268.366l.133-.13c.1.057.18.14.24.247l-.15.204-.222-.32zm1.127.496l-.207.19-.223-.25.193-.116c.08.038.158.097.237.175zm.61.247c-.022 0-.05-.02-.09-.058-.04-.04-.07-.06-.09-.06.08-.078.14-.16.18-.248.077.058.157.132.235.22l-.236.145zm.606-.22l.21-.232c.098.097.172.155.222.174-.15.156-.252.204-.312.146-.06-.06-.1-.088-.12-.088z"/></g></g></g></svg>