<svg width="14" height="20" viewBox="0 0 14 20" xmlns="http://www.w3.org/2000/svg"><title>google</title><desc>Created with Sketch.</desc><g fill="none" fill-rule="evenodd"><g fill="#fff"><g><path d="M6.575 9.82c0-.174.084-.505.25-.995-.403.036-.694.054-.87.054-1.48-.02-2.612-.45-3.4-1.295-.808-.798-1.206-1.706-1.197-2.723 0-1.28.572-2.425 1.715-3.432C3.86.812 4.678.422 5.525.258 6.372.095 7.157.008 7.88 0h5.503l-1.7.926H9.9c.762.435 1.357 1.153 1.784 2.152.12.39.17 1.003.152 1.838-.02.836-.457 1.644-1.31 2.424l-.84.668c-.498.445-.746.835-.746 1.17 0 .337.09.587.274.75.122.164.258.313.41.45l.993.735c.64.48 1.153.976 1.54 1.484.388.51.605 1.204.654 2.084 0 1.226-.587 2.33-1.764 3.31-1.254 1.008-3.005 1.522-5.25 1.54-1.963-.037-3.416-.414-4.362-1.13C.488 17.68.01 16.84 0 15.88c0-.472.152-1 .455-1.58.303-.58.876-1.1 1.717-1.553.843-.453 1.773-.762 2.79-.926 1.018-.153 1.81-.235 2.378-.245-.51-.625-.765-1.21-.765-1.756zm3.385 7.857c.71-.508 1.063-1.125 1.063-1.852 0-.726-.232-1.344-.695-1.852-.484-.445-1.243-1-2.278-1.66-.89-.138-2.015-.01-3.374.38-.02.018-.167.072-.442.163-.275.09-.58.26-.913.504-.628.536-.946 1.22-.956 2.057-.01.826.422 1.538 1.296 2.138.873.59 1.965.885 3.274.885 1.31 0 2.32-.254 3.026-.763zM6.208.844c-.767.037-1.39.322-1.87.858-.934 1.262-.85 2.865.248 4.808.3.5.65.89 1.055 1.17.435.346.97.51 1.606.49.635-.017 1.2-.258 1.69-.72.24-.336.38-.645.42-.927.038-.28.067-.595.086-.94 0-1.008-.265-2.03-.795-3.064C8.354 2 8.017 1.6 7.64 1.32 7.206 1.04 6.73.88 6.21.845z"/></g></g></g></svg>