<svg width="18" height="20" viewBox="0 0 18 20" xmlns="http://www.w3.org/2000/svg"><title>stackoverflow</title><desc>Created with Sketch.</desc><g fill="none" fill-rule="evenodd"><g fill="#fff"><g><path d="M11.883 17.324l-9.053.004v-1.686l9.052-.004v1.686zm4.212-9.26L14.545.29 16.452 0 18 7.777l-1.905.288zm-4.172 7.09l-9.014-.722.176-1.68 9.015.725-.177 1.678zm.27-2.25l-8.742-2.048.503-1.628 8.742 2.05-.5 1.627zm.66-2.104L5.058 6.79l.982-1.452 7.796 4.01-.982 1.452zm1.298-1.683l-5.1-6.52 1.598-.95 5.1 6.52-1.597.95zm-.73 2.662v6.89H1.546v-6.89H0v8.213h.015c0 .007.452.007.452.007H14.95v-.007c.016 0 .016-.393.016-.393v-7.82H13.42z"/></g></g></g></svg>