<svg width="25" height="20" viewBox="0 0 25 20" xmlns="http://www.w3.org/2000/svg"><title>twitter</title><desc>Created with Sketch.</desc><g fill="none" fill-rule="evenodd"><g fill="#fff"><g><path d="M24.09.804c-.04.2-.23.537-.568 1.013-.34.477-.78.88-1.324 1.207 1.118 0 2.053-.203 2.802-.61-1.088 1.32-1.873 2.08-2.355 2.28-.124.04-.196.248-.216.625-.073 1.38-.2 2.528-.386 3.442-.41 2.037-1.4 4.02-2.97 5.946-.257.378-.725.86-1.402 1.445-.677.577-1.35 1.074-2.016 1.49-.667.42-1.53.84-2.586 1.268-1.057.418-2.155.706-3.295.865-.924.08-1.863.15-2.817.21-.955.068-2.068-.086-3.34-.463-1.273-.377-2.48-.974-3.618-1.79.287.06.76.06 1.416 0 2.196-.187 4.208-.923 6.035-2.204-.267 0-.677-.084-1.23-.254-.565-.168-1.047-.367-1.448-.595-.4-.23-.8-.568-1.2-1.015-.4-.447-.683-.954-.848-1.52 1.18 0 1.883-.02 2.11-.06l-.432-.164c-.184-.068-.512-.252-.985-.55-.46-.298-.867-.62-1.216-.97-.348-.346-.67-.828-.97-1.444C.934 8.34.8 7.684.83 6.988l.386.15c.74.288 1.324.412 1.755.372-.338-.248-.682-.61-1.03-1.088-.35-.476-.61-.954-.786-1.43C.98 4.514.908 3.908.94 3.17c.03-.734.235-1.49.615-2.263.39.525.944 1.09 1.662 1.697.718.606 1.457 1.138 2.217 1.595.75.457 1.73.874 2.94 1.252 1.21.377 2.457.57 3.74.58-.06-.347-.05-.84.032-1.475.092-.636.23-1.193.415-1.67.186-.476.525-.958 1.017-1.445C14.347.67 15.312.208 16.47.06c1.91-.24 3.42.247 4.527 1.46 1.724-.27 2.787-.666 3.187-1.193-.02.12-.05.28-.093.477z"/></g></g></g></svg>